HIERARCHY
ROOT Hips
{
	OFFSET 0.00000 0.00000 0.00000
	CHANNELS 6 Xposition Yposition Zposition Zrotation Yrotation Xrotation 
	JOINT LHipJoint
	{
		OFFSET 0 0 0
		CHANNELS 3 Zrotation Yrotation Xrotation
		JOINT LeftUpLeg
		{
			OFFSET 1.48831 -1.59570 0.95625
			CHANNELS 3 Zrotation Yrotation Xrotation
			JOINT LeftLeg
			{
				OFFSET 2.20856 -6.06797 0.00000
				CHANNELS 3 Zrotation Yrotation Xrotation
				JOINT LeftFoot
				{
					OFFSET 2.62924 -7.22379 0.00000
					CHANNELS 3 Zrotation Yrotation Xrotation
					JOINT LeftToeBase
					{
						OFFSET 0.16802 -0.46163 2.41673
						CHANNELS 3 Zrotation Yrotation Xrotation
						End Site
						{
							OFFSET 0.00000 -0.00000 1.23760
						}
					}
				}
			}
		}
	}
	JOINT RHipJoint
	{
		OFFSET 0 0 0
		CHANNELS 3 Zrotation Yrotation Xrotation
		JOINT RightUpLeg
		{
			OFFSET -1.56796 -1.59570 0.95625
			CHANNELS 3 Zrotation Yrotation Xrotation
			JOINT RightLeg
			{
				OFFSET -2.29239 -6.29829 0.00000
				CHANNELS 3 Zrotation Yrotation Xrotation
				JOINT RightFoot
				{
					OFFSET -2.66963 -7.33475 0.00000
					CHANNELS 3 Zrotation Yrotation Xrotation
					JOINT RightToeBase
					{
						OFFSET -0.18185 -0.49964 2.34359
						CHANNELS 3 Zrotation Yrotation Xrotation
						End Site
						{
							OFFSET -0.00000 -0.00000 1.20477
						}
					}
				}
			}
		}
	}
	JOINT LowerBack
	{
		OFFSET 0 0 0
		CHANNELS 3 Zrotation Yrotation Xrotation
		JOINT Spine
		{
			OFFSET 0.03505 2.15832 -0.34324
			CHANNELS 3 Zrotation Yrotation Xrotation
			JOINT Spine1
			{
				OFFSET -0.01089 2.17963 0.04689
				CHANNELS 3 Zrotation Yrotation Xrotation
				JOINT Neck
				{
					OFFSET 0 0 0
					CHANNELS 3 Zrotation Yrotation Xrotation
					JOINT Neck1
					{
						OFFSET 0.04686 1.69404 0.22159
						CHANNELS 3 Zrotation Yrotation Xrotation
						JOINT Head
						{
							OFFSET 0.00265 1.69305 -0.01513
							CHANNELS 3 Zrotation Yrotation Xrotation
							End Site
							{
								OFFSET -0.00415 1.80215 -0.03034
							}
						}
					}
				}
				JOINT LeftShoulder
				{
					OFFSET 0 0 0
					CHANNELS 3 Zrotation Yrotation Xrotation
					JOINT LeftArm
					{
						OFFSET 3.67184 1.11724 -0.19002
						CHANNELS 3 Zrotation Yrotation Xrotation
						JOINT LeftForeArm
						{
							OFFSET 5.17714 -0.00000 -0.00000
							CHANNELS 3 Zrotation Yrotation Xrotation
							JOINT LeftHand
							{
								OFFSET 3.43679 -0.00000 -0.00000
								CHANNELS 3 Zrotation Yrotation Xrotation
								JOINT LeftFingerBase
								{
									OFFSET 0 0 0
									CHANNELS 3 Zrotation Yrotation Xrotation
									JOINT LeftHandIndex1
									{
										OFFSET 0.57312 -0.00000 -0.00000
										CHANNELS 3 Zrotation Yrotation Xrotation
										End Site
										{
											OFFSET 0.46206 -0.00000 -0.00000
										}
									}
								}
								JOINT LThumb
								{
									OFFSET 0 0 0
									CHANNELS 3 Zrotation Yrotation Xrotation
									End Site
									{
										OFFSET 0.46912 -0.00000 0.46912
									}
								}
							}
						}
					}
				}
				JOINT RightShoulder
				{
					OFFSET 0 0 0
					CHANNELS 3 Zrotation Yrotation Xrotation
					JOINT RightArm
					{
						OFFSET -3.59596 0.95831 -0.26050
						CHANNELS 3 Zrotation Yrotation Xrotation
						JOINT RightForeArm
						{
							OFFSET -5.23908 -0.00000 -0.00000
							CHANNELS 3 Zrotation Yrotation Xrotation
							JOINT RightHand
							{
								OFFSET -3.46485 -0.00000 -0.00000
								CHANNELS 3 Zrotation Yrotation Xrotation
								JOINT RightFingerBase
								{
									OFFSET 0 0 0
									CHANNELS 3 Zrotation Yrotation Xrotation
									JOINT RightHandIndex1
									{
										OFFSET -0.60875 -0.00000 -0.00000
										CHANNELS 3 Zrotation Yrotation Xrotation
										End Site
										{
											OFFSET -0.49079 -0.00000 -0.00000
										}
									}
								}
								JOINT RThumb
								{
									OFFSET 0 0 0
									CHANNELS 3 Zrotation Yrotation Xrotation
									End Site
									{
										OFFSET -0.49829 -0.00000 0.49829
									}
								}
							}
						}
					}
				}
			}
		}
	}
}
MOTION
Frames: 16
Frame Time: .0083333
6.9149 16.1923 -4.0633 -0.1789 -20.2993 -361.3550 0.0000 0.0000 0.0000 -23.8731 9.4562 -9.8784 2.0793 9.0293 25.8869 1.3334 -1.5730 -21.3752 0.1602 -2.5787 -7.1080 0.0000 0.0000 0.0000 19.5665 10.9426 -30.8552 -10.9398 -17.9055 62.5861 -0.8130 -8.6276 -22.2587 -0.0896 1.9310 -5.3149 -1.1895 -1.1008 2.3077 -0.9971 -1.4731 3.3824 -0.3516 -0.7562 2.1799 -1.6234 -4.1838 -6.9012 4.1877 -5.9587 10.6059 1.1923 -2.7678 4.4834 0.0000 0.0000 0.0000 -87.0435 -0.7736 23.2584 17.1373 -27.0384 -4.1496 -0.0000 0.0000 -20.5157 21.4315 12.7213 4.9403 -7.1250 0.0000 -0.0000 -5.3553 43.5474 0.1926 0.0000 0.0000 0.0000 87.9259 -4.3074 31.0882 -17.4105 27.3958 -4.2745 0.0000 0.0000 3.5125 -16.9339 -10.0030 3.0273 7.1250 -0.0000 -0.0000 8.8491 -40.2714 1.0409
6.8379 16.1875 -3.9053 -0.0625 -20.4059 -361.3310 0.0000 0.0000 0.0000 -23.9018 9.5803 -8.9455 2.0049 8.8762 25.4090 1.3790 -1.2857 -21.8245 0.1616 -2.5901 -7.1396 0.0000 0.0000 0.0000 19.4771 11.2907 -31.5746 -10.3381 -17.5956 60.6124 -0.8520 -8.9212 -22.8495 -0.0676 1.6776 -4.6154 -1.2980 -1.1250 2.2977 -0.9754 -1.5068 3.3456 -0.2683 -0.7756 2.1512 -1.7018 -4.2568 -6.8573 4.3255 -6.0601 10.4928 1.2426 -2.8152 4.4512 0.0000 -0.0000 0.0000 -86.7584 -1.0456 23.8678 17.8184 -27.9240 -4.4639 -0.0000 0.0000 -20.8787 21.1739 12.6347 4.8429 -7.1250 0.0000 -0.0000 -5.5731 43.4273 0.2170 0.0000 -0.0000 0.0000 87.8913 -4.4600 31.0300 -17.3560 27.3247 -4.2495 0.0000 0.0000 3.6931 -17.0114 -9.9779 3.0345 7.1250 -0.0000 -0.0000 8.7775 -40.2521 1.0366
6.7592 16.1834 -3.7478 0.0776 -20.5501 -361.3220 0.0000 0.0000 0.0000 -23.9479 9.7634 -7.9439 1.9112 8.6786 24.7951 1.4164 -0.9863 -22.2102 0.1618 -2.5919 -7.1447 0.0000 0.0000 0.0000 19.3877 11.5784 -32.2279 -9.7163 -17.2472 58.5358 -0.8775 -9.2328 -23.3310 -0.0519 1.4701 -4.0432 -1.4382 -1.1374 2.2937 -0.9650 -1.5248 3.3107 -0.1787 -0.7876 2.1217 -1.7710 -4.3310 -6.8158 4.4689 -6.1643 10.3744 1.2929 -2.8636 4.4180 0.0000 0.0000 0.0000 -86.4479 -1.3061 24.4464 18.5118 -28.8075 -4.7933 -0.0000 0.0000 -21.2169 20.9316 12.5559 4.7533 -7.1250 0.0000 -0.0000 -5.7778 43.3174 0.2408 0.0000 0.0000 0.0000 87.8723 -4.6038 30.9495 -17.3015 27.2535 -4.2245 0.0000 0.0000 3.8716 -17.0713 -9.9495 3.0372 7.1250 -0.0000 -0.0000 8.7203 -40.2280 1.0349
6.6784 16.1790 -3.5902 0.2554 -20.7319 -361.3430 0.0000 0.0000 0.0000 -24.0131 10.0596 -6.8890 1.8016 8.4400 24.0586 1.4469 -0.7327 -22.5276 0.1625 -2.5975 -7.1601 0.0000 0.0000 0.0000 19.2903 11.8072 -32.8097 -9.0826 -16.8606 56.3755 -0.8919 -9.5324 -23.7050 -0.0422 1.3265 -3.6477 -1.6252 -1.1393 2.2952 -0.9692 -1.5291 3.2830 -0.0781 -0.7937 2.0974 -1.8385 -4.4039 -6.7754 4.6241 -6.2681 10.2512 1.3466 -2.9111 4.3841 0.0000 -0.0000 0.0000 -86.1097 -1.5575 24.9916 19.2142 -29.6839 -5.1365 -0.0000 0.0000 -21.5679 20.7496 12.4549 4.6712 -7.1250 0.0000 -0.0000 -5.9237 43.1910 0.2654 0.0000 -0.0000 0.0000 87.8711 -4.7343 30.8456 -17.2453 27.1801 -4.1988 0.0000 0.0000 4.0370 -17.1020 -9.9177 3.0334 7.1250 -0.0000 -0.0000 8.6881 -40.1978 1.0375
6.5955 16.1739 -3.4324 0.4647 -20.9471 -361.3900 0.0000 0.0000 0.0000 -24.0909 10.4484 -5.7781 1.6788 8.1623 23.2080 1.4705 -0.5105 -22.7817 0.1650 -2.6170 -7.2143 0.0000 0.0000 0.0000 19.1959 11.9839 -33.3187 -8.4425 -16.4353 54.1414 -0.8976 -9.8097 -23.9887 -0.0373 1.2470 -3.4286 -1.8452 -1.1286 2.2926 -0.9903 -1.5167 3.2654 0.0234 -0.7920 2.0862 -1.9051 -4.4822 -6.7300 4.8016 -6.3810 10.1155 1.4066 -2.9623 4.3469 0.0000 -0.0000 0.0000 -85.7424 -1.8087 25.5089 19.9157 -30.5407 -5.4885 -0.0000 0.0000 -21.9210 20.6178 12.3407 4.5972 -7.1250 0.0000 -0.0000 -6.0220 43.0564 0.2900 0.0000 -0.0000 0.0000 87.8955 -4.8514 30.7162 -17.1888 27.1060 -4.1730 0.0000 0.0000 4.1763 -17.1264 -9.9003 3.0327 7.1250 -0.0000 -0.0000 8.6638 -40.1820 1.0380
6.5105 16.1681 -3.2740 0.7008 -21.1898 -361.4590 0.0000 0.0000 0.0000 -24.1755 10.9299 -4.6166 1.5451 7.8463 22.2483 1.4862 -0.3184 -22.9654 0.1714 -2.6667 -7.3522 0.0000 0.0000 0.0000 19.1088 12.1141 -33.7561 -7.8000 -15.9701 51.8390 -0.9090 -10.0014 -24.2476 -0.0321 1.1569 -3.1807 -2.0899 -1.1089 2.2775 -1.0254 -1.4917 3.2591 0.1237 -0.7847 2.0937 -1.9726 -4.5628 -6.6789 4.9987 -6.4982 9.9663 1.4728 -3.0152 4.3057 0.0000 -0.0000 0.0000 -85.3531 -2.0636 26.0097 20.6119 -31.3725 -5.8466 -0.0000 0.0000 -22.3062 20.5765 12.2223 4.5441 -7.1250 0.0000 -0.0000 -6.0379 42.9273 0.3100 0.0000 -0.0000 0.0000 87.9428 -4.9507 30.5570 -17.1263 27.0240 -4.1446 0.0000 0.0000 4.3072 -17.1500 -9.8922 3.0347 7.1250 -0.0000 -0.0000 8.6419 -40.1756 1.0367
6.4238 16.1617 -3.1148 0.9524 -21.4582 -361.5460 0.0000 0.0000 0.0000 -24.2555 11.4954 -3.4047 1.4032 7.4932 21.1849 1.4932 -0.1412 -23.0775 0.1844 -2.7658 -7.6273 0.0000 0.0000 0.0000 19.0423 12.2066 -34.1168 -7.1585 -15.4639 49.4712 -0.9317 -10.1012 -24.5200 -0.0260 1.0415 -2.8631 -2.3439 -1.0818 2.2427 -1.0712 -1.4559 3.2649 0.2177 -0.7723 2.1242 -2.0504 -4.6459 -6.6190 5.2193 -6.6195 9.8027 1.5478 -3.0697 4.2603 -0.0000 0.0000 0.0000 -84.9537 -2.3319 26.4630 21.2875 -32.1625 -6.2023 -0.0000 0.0000 -22.6869 20.6116 12.1000 4.5078 -7.1250 0.0000 -0.0000 -5.9849 42.8022 0.3258 -0.0000 0.0000 0.0000 88.0083 -5.0299 30.3814 -17.0564 26.9321 -4.1129 0.0000 0.0000 4.4151 -17.1883 -9.9026 3.0450 7.1250 -0.0000 -0.0000 8.6106 -40.1895 1.0299
6.3354 16.1550 -2.9545 1.1939 -21.7498 -361.6350 0.0000 0.0000 0.0000 -24.3050 12.1364 -2.1465 1.2555 7.1034 20.0219 1.4910 0.0151 -23.1123 0.2014 -2.8900 -7.9726 0.0000 0.0000 0.0000 19.0225 12.2786 -34.3947 -6.5211 -14.9150 47.0388 -0.9657 -10.1358 -24.8258 -0.0195 0.9022 -2.4797 -2.5866 -1.0524 2.1840 -1.1153 -1.4158 3.2795 0.3065 -0.7579 2.1769 -2.1292 -4.7253 -6.5498 5.4431 -6.7349 9.6278 1.6247 -3.1219 4.2103 -0.0000 -0.0000 0.0000 -84.5572 -2.6109 26.8579 21.9331 -32.9013 -6.5495 -0.0000 0.0000 -23.0498 20.6717 11.9579 4.4700 -7.1250 0.0000 -0.0000 -5.9063 42.6586 0.3425 -0.0000 -0.0000 0.0000 88.0761 -5.0897 30.2135 -16.9766 26.8269 -4.0768 0.0000 0.0000 4.4908 -17.2465 -9.9246 3.0627 7.1250 -0.0000 -0.0000 8.5641 -40.2171 1.0184
6.2457 16.1479 -2.7931 1.4148 -22.0605 -361.7150 0.0000 0.0000 0.0000 -24.3188 12.8361 -0.8474 1.1041 6.6765 18.7605 1.4783 0.1732 -23.0664 0.2225 -3.0363 -8.3798 0.0000 0.0000 0.0000 19.0548 12.3391 -34.5977 -5.8931 -14.3240 44.5513 -1.0013 -10.1793 -25.1477 -0.0157 0.8089 -2.2232 -2.7999 -1.0231 2.0954 -1.1566 -1.3739 3.2975 0.3810 -0.7423 2.2488 -2.2147 -4.8009 -6.4790 5.6666 -6.8442 9.4540 1.7029 -3.1716 4.1607 -0.0000 0.0000 0.0000 -84.1641 -2.8988 27.1934 22.5401 -33.5821 -6.8822 -0.0000 0.0000 -23.3888 20.7443 11.8108 4.4329 -7.1250 0.0000 -0.0000 -5.8160 42.5108 0.3585 -0.0000 0.0000 0.0000 88.1465 -5.1326 30.0497 -16.8853 26.7063 -4.0356 0.0000 0.0000 4.5435 -17.3180 -9.9603 3.0871 7.1250 -0.0000 -0.0000 8.5085 -40.2598 1.0026
6.1551 16.1403 -2.6311 1.6028 -22.3764 -361.7810 0.0000 0.0000 0.0000 -24.2862 13.5736 0.5031 0.9515 6.2120 17.4007 1.4542 0.3571 -22.9415 0.2490 -3.2111 -8.8669 0.0000 0.0000 0.0000 19.1433 12.3931 -34.7228 -5.2812 -13.6936 42.0238 -1.0408 -10.2393 -25.5098 -0.0135 0.7500 -2.0612 -2.9714 -0.9995 1.9904 -1.1903 -1.3384 3.3158 0.4397 -0.7292 2.3294 -2.3026 -4.8711 -6.4081 5.8796 -6.9448 9.2896 1.7788 -3.2177 4.1136 0.0000 0.0000 0.0000 -83.7773 -3.1896 27.4735 23.1026 -34.2008 -7.1959 -0.0000 0.0000 -23.7173 20.8064 11.6663 4.3939 -7.1250 0.0000 -0.0000 -5.7363 42.3647 0.3743 0.0000 0.0000 0.0000 88.2154 -5.1614 29.8931 -16.7793 26.5659 -3.9881 0.0000 0.0000 4.5882 -17.3917 -9.9863 3.1091 7.1250 -0.0000 -0.0000 8.4493 -40.2929 0.9886
6.0636 16.1325 -2.4686 1.7566 -22.6885 -361.8370 0.0000 0.0000 0.0000 -24.2080 14.3264 1.9233 0.7987 5.7043 15.9289 1.4174 0.5842 -22.7314 0.2763 -3.3811 -9.3417 0.0000 0.0000 0.0000 19.2770 12.4555 -34.7708 -4.6941 -13.0308 39.4839 -1.0862 -10.3167 -25.9259 -0.0123 0.7169 -1.9701 -3.0983 -0.9822 1.8808 -1.2171 -1.3107 3.3292 0.4807 -0.7191 2.4066 -2.3827 -4.9372 -6.3418 6.0719 -7.0393 9.1463 1.8473 -3.2614 4.0728 -0.0000 0.0000 0.0000 -83.3990 -3.4765 27.7045 23.6139 -34.7533 -7.4853 -0.0000 0.0000 -24.0206 20.8901 11.5368 4.3650 -7.1250 0.0000 -0.0000 -5.6401 42.2363 0.3859 -0.0000 0.0000 0.0000 88.2821 -5.1846 29.7375 -16.6607 26.4083 -3.9352 0.0000 0.0000 4.6356 -17.4497 -10.0026 3.1251 7.1250 -0.0000 -0.0000 8.4019 -40.3147 0.9784
5.9711 16.1244 -2.3057 1.8795 -22.9869 -361.8830 0.0000 0.0000 0.0000 -24.0875 15.0836 3.4349 0.6467 5.1442 14.3204 1.3663 0.8773 -22.4295 0.3071 -3.5627 -9.8495 0.0000 0.0000 0.0000 19.4405 12.5313 -34.7508 -4.1413 -12.3461 36.9677 -1.1354 -10.4213 -26.3855 -0.0124 0.7177 -1.9722 -3.1820 -0.9742 1.7714 -1.2375 -1.2951 3.3362 0.5042 -0.7140 2.4765 -2.4572 -4.9977 -6.2844 6.2401 -7.1257 9.0327 1.9075 -3.3015 4.0414 0.0000 -0.0000 0.0000 -83.0316 -3.7557 27.8815 24.0670 -35.2350 -7.7452 -0.0000 0.0000 -24.3023 20.9401 11.4110 4.3295 -7.1250 0.0000 -0.0000 -5.5749 42.1082 0.3991 0.0000 -0.0000 0.0000 88.3501 -5.2032 29.5628 -16.5297 26.2336 -3.8772 0.0000 0.0000 4.6987 -17.4734 -10.0011 3.1291 7.1250 -0.0000 -0.0000 8.3810 -40.3151 0.9759
5.8778 16.1158 -2.1424 1.9767 -23.2691 -361.9310 0.0000 0.0000 0.0000 -23.9296 15.8296 5.0797 0.4963 4.5166 12.5347 1.2991 1.2658 -22.0301 0.3412 -3.7537 -10.3848 0.0000 0.0000 0.0000 19.6120 12.6470 -34.6606 -3.6324 -11.6544 34.5202 -1.1891 -10.5432 -26.8853 -0.0133 0.7442 -2.0452 -3.2269 -0.9731 1.6725 -1.2527 -1.2892 3.3370 0.5117 -0.7127 2.5336 -2.5266 -5.0572 -6.2281 6.3876 -7.2104 8.9439 1.9604 -3.3413 4.0168 0.0000 0.0000 0.0000 -82.6836 -4.0253 28.0053 24.4549 -35.6416 -7.9701 -0.0000 0.0000 -24.5536 21.0027 11.2866 4.2971 -7.1250 0.0000 -0.0000 -5.4991 41.9828 0.4107 0.0000 0.0000 0.0000 88.4190 -5.2261 29.3697 -16.3921 26.0494 -3.8165 0.0000 0.0000 4.7891 -17.4751 -9.9945 3.1274 7.1250 -0.0000 -0.0000 8.3783 -40.3084 0.9769
5.7839 16.1069 -1.9785 2.0432 -23.5282 -361.9750 0.0000 0.0000 0.0000 -23.7245 16.5698 6.8972 0.3493 3.7973 10.5072 1.2115 1.7595 -21.4978 0.3788 -3.9525 -10.9432 0.0000 0.0000 0.0000 19.7786 12.8162 -34.5146 -3.1753 -10.9735 32.1906 -1.2459 -10.6787 -27.4088 -0.0147 0.7841 -2.1551 -3.2261 -0.9810 1.5868 -1.2608 -1.2961 3.3295 0.5012 -0.7164 2.5740 -2.5876 -5.1153 -6.1724 6.5096 -7.2928 8.8810 2.0041 -3.3805 3.9991 -0.0000 0.0000 0.0000 -82.3590 -4.2809 28.0808 24.7742 -35.9723 -8.1569 -0.0000 0.0000 -24.7777 21.0363 11.1772 4.2636 -7.1250 0.0000 -0.0000 -5.4519 41.8703 0.4223 -0.0000 0.0000 0.0000 88.4910 -5.2602 29.1500 -16.2509 25.8597 -3.7547 0.0000 0.0000 4.9244 -17.4720 -9.9819 3.1230 7.1250 -0.0000 -0.0000 8.3788 -40.2952 0.9798
5.6892 16.0973 -1.8141 2.0836 -23.7639 -362.0210 0.0000 0.0000 0.0000 -23.4338 17.5194 8.9045 0.2082 2.9378 8.1055 1.0970 2.1998 -20.6918 0.4241 -4.1797 -11.5827 0.0000 0.0000 0.0000 19.9321 13.0313 -34.3300 -2.7755 -10.3224 30.0273 -1.3033 -10.8258 -27.9369 -0.0168 0.8362 -2.2981 -3.1843 -0.9967 1.5137 -1.2630 -1.3143 3.3151 0.4741 -0.7246 2.5997 -2.6428 -5.1740 -6.1163 6.6076 -7.3755 8.8386 2.0394 -3.4205 3.9865 -0.0000 -0.0000 0.0000 -82.0588 -4.5192 28.1218 25.0304 -36.2350 -8.3078 -0.0000 0.0000 -25.0113 21.1353 11.0992 4.2561 -7.1250 0.0000 -0.0000 -5.3516 41.7973 0.4242 -0.0000 -0.0000 0.0000 88.5640 -5.3118 28.9137 -16.1137 25.6746 -3.6951 0.0000 0.0000 5.0994 -17.4730 -9.9757 3.1212 7.1250 -0.0000 -0.0000 8.3768 -40.2889 0.9808
5.5940 16.0866 -1.6493 2.1037 -23.9721 -362.0640 0.0000 0.0000 0.0000 -23.0447 18.5873 11.4003 0.0761 1.7798 4.8975 0.9334 2.8078 -19.4685 0.4779 -4.4333 -12.2991 0.0000 0.0000 0.0000 20.0736 13.2667 -34.1333 -2.4356 -9.7198 28.0741 -1.3611 -10.9801 -28.4635 -0.0188 0.8853 -2.4334 -3.1097 -1.0216 1.4543 -1.2584 -1.3456 3.2913 0.4361 -0.7382 2.6076 -2.6968 -5.2327 -6.0589 6.6860 -7.4575 8.8170 2.0685 -3.4607 3.9793 0.0000 -0.0000 0.0000 -81.7918 -4.7399 28.1172 25.2152 -36.4231 -8.4173 -0.0000 0.0000 -25.2181 21.2264 11.0345 4.2516 -7.1250 0.0000 -0.0000 -5.2607 41.7377 0.4247 0.0000 -0.0000 0.0000 88.6352 -5.3861 28.6641 -15.9840 25.4989 -3.6391 0.0000 0.0000 5.3121 -17.4896 -9.9737 3.1238 7.1250 -0.0000 -0.0000 8.3621 -40.2882 0.9792
